<svg xmlns="http://www.w3.org/2000/svg" width="64" height="64" viewBox="0 0 64 64" fill="none">
  <defs>
    <linearGradient id="g" x1="10" y1="8" x2="54" y2="56" gradientUnits="userSpaceOnUse">
      <stop stop-color="#16a34a"/>
      <stop offset="1" stop-color="#0ea5e9"/>
    </linearGradient>
  </defs>
  <path d="M32 6c10.5 0 19 8.5 19 19 0 8.3-5.3 15.4-12.8 18.1-.9.3-1.2 1.3-.7 2.1l2.8 4.6c.9 1.5-.2 3.4-2 3.4H25.7c-1.8 0-2.9-1.9-2-3.4l2.8-4.6c.5-.8.2-1.8-.7-2.1C18.3 40.4 13 33.3 13 25 13 14.5 21.5 6 32 6Z" fill="url(#g)"/>
  <path d="M22.5 25.5c2.2-5 6.2-8 9.5-8s7.3 3 9.5 8c-2.2 5-6.2 8-9.5 8s-7.3-3-9.5-8Z" fill="white" opacity=".9"/>
  <circle cx="32" cy="25.5" r="3.2" fill="#0f172a" opacity=".9"/>
</svg>